<svg id="Group_4073" data-name="Group 4073" xmlns="http://www.w3.org/2000/svg" width="22.056" height="22.001" viewBox="0 0 22.056 22.001">
  <g id="Group_4074" data-name="Group 4074">
    <path id="Path_2625" data-name="Path 2625" d="M20.043,4.493A11,11,0,0,0,14.161,2.05V4.283a8.779,8.779,0,0,1,4.312,1.791Zm1.78,7.452h2.233a11,11,0,0,0-2.443-5.882l-1.581,1.57A8.779,8.779,0,0,1,21.823,11.945Zm-1.791,6.523,1.581,1.581a11.035,11.035,0,0,0,2.443-5.882H21.823A8.784,8.784,0,0,1,20.032,18.468Zm-5.871,3.35v2.233a11,11,0,0,0,5.882-2.443l-1.581-1.581A8.7,8.7,0,0,1,14.161,21.818Zm2.863-10.326-2.863,2.852V7.523H11.95v6.821L9.087,11.48,7.528,13.05l5.528,5.528,5.528-5.528ZM11.95,21.818v2.233a11.056,11.056,0,0,1,0-22V4.283a8.835,8.835,0,0,0,0,17.534Z" transform="translate(-2 -2.05)" fill="#c1c1c1"/>
  </g>
</svg>
