<svg xmlns="http://www.w3.org/2000/svg" width="27.268" height="27.268" viewBox="0 0 27.268 27.268">
  <g id="Group_4483" data-name="Group 4483" transform="translate(0 27.268) rotate(-90)" opacity="0.5">
    <g id="Group_4360" data-name="Group 4360">
      <path id="Path_2786" data-name="Path 2786" d="M27.238,21.451V9.059a6.059,6.059,0,0,0-12.119,0V24.208a3.03,3.03,0,1,1-6.059,0V11.817a4.545,4.545,0,1,0-3.03,0V24.208a6.059,6.059,0,1,0,12.119,0V9.059a3.03,3.03,0,1,1,6.059,0V21.451a4.545,4.545,0,1,0,3.03,0ZM7.545,9.059A1.515,1.515,0,1,1,9.059,7.545,1.519,1.519,0,0,1,7.545,9.059ZM25.723,27.238a1.515,1.515,0,1,1,1.515-1.515A1.519,1.519,0,0,1,25.723,27.238Z" transform="translate(-3 -3)" fill="#fff"/>
    </g>
  </g>
</svg>
