<svg xmlns="http://www.w3.org/2000/svg" width="40.019" height="37.705" viewBox="0 0 40.019 37.705">
  <path id="Path_2789" data-name="Path 2789" d="M27.288,15.064v3.161H33.61V15.064ZM24.127,25.511c1.517,1.122,3.493,2.608,5.058,3.777.632-.838,1.264-1.691,1.9-2.529-1.565-1.17-3.54-2.655-5.058-3.793C25.392,23.82,24.759,24.673,24.127,25.511ZM31.082,6.529c-.632-.838-1.264-1.691-1.9-2.529-1.565,1.17-3.54,2.655-5.058,3.793.632.838,1.264,1.691,1.9,2.529C27.541,9.184,29.517,7.714,31.082,6.529ZM5.161,11.9A3.17,3.17,0,0,0,2,15.064v3.161a3.17,3.17,0,0,0,3.161,3.161H6.742v6.322H9.9V21.386h1.581l7.9,4.742V7.161l-7.9,4.742Zm18.176,4.742a7.081,7.081,0,0,0-2.371-5.295V21.923A7.021,7.021,0,0,0,23.337,16.644Z" transform="translate(-3.732 13.341) rotate(-30)" fill="#fff" opacity="0.5"/>
</svg>
